<svg xmlns="http://www.w3.org/2000/svg" viewBox="0 0 680 520" width="100%" style="font-family:var(--font-sans)">
<defs>
  <marker id="arrow" viewBox="0 0 10 10" refX="8" refY="5" markerWidth="6" markerHeight="6" orient="auto-start-reverse">
    <path d="M2 1L8 5L2 9" fill="none" stroke="context-stroke" stroke-width="1.5" stroke-linecap="round" stroke-linejoin="round"/>
  </marker>
  <marker id="arrow-gray" viewBox="0 0 10 10" refX="8" refY="5" markerWidth="6" markerHeight="6" orient="auto-start-reverse">
    <path d="M2 1L8 5L2 9" fill="none" stroke="#888780" stroke-width="1" stroke-linecap="round" stroke-linejoin="round"/>
  </marker>
</defs>

<!-- Title -->
<text x="340" y="28" text-anchor="middle" font-size="15" font-weight="500" fill="var(--color-text-primary)">汇率追踪网站 — 系统架构</text>
<text x="340" y="46" text-anchor="middle" font-size="12" fill="var(--color-text-secondary)">数据流向 · 部署架构 · 用户访问</text>

<!-- Left Column: Data Layer -->
<!-- Data Source -->
<rect x="40" y="68" width="160" height="56" rx="8" fill="var(--color-background-secondary)" stroke="var(--color-border-tertiary)" stroke-width="0.5"/>
<text x="120" y="92" text-anchor="middle" font-size="13" font-weight="500" fill="var(--color-text-primary)">数据源</text>
<text x="120" y="110" text-anchor="middle" font-size="12" fill="var(--color-text-secondary)">akshare · currency_boc_sina()</text>

<!-- fetch_rates.py -->
<rect x="40" y="152" width="160" height="72" rx="8" fill="#EEEDFE" stroke="#7F77DD" stroke-width="0.5"/>
<text x="120" y="176" text-anchor="middle" font-size="13" font-weight="500" fill="#26215C">fetch_rates.py</text>
<text x="120" y="194" text-anchor="middle" font-size="11" fill="#534AB7">数据抓取 · 预警计算</text>
<text x="120" y="210" text-anchor="middle" font-size="11" fill="#534AB7">HTML生成 · 邮件发送</text>

<!-- Output files -->
<rect x="40" y="252" width="160" height="108" rx="8" fill="var(--color-background-secondary)" stroke="var(--color-border-tertiary)" stroke-width="0.5"/>
<text x="120" y="276" text-anchor="middle" font-size="13" font-weight="500" fill="var(--color-text-primary)">输出文件</text>
<line x1="56" y1="284" x2="184" y2="284" stroke="var(--color-border-tertiary)" stroke-width="0.5"/>
<text x="64" y="302" font-size="12" fill="var(--color-text-secondary)">data/rates.json</text>
<text x="64" y="320" font-size="12" fill="var(--color-text-secondary)">index.html（自包含）</text>
<text x="64" y="338" font-size="12" fill="var(--color-text-secondary)">version.txt · update_log.json</text>
<text x="64" y="356" font-size="12" fill="var(--color-text-secondary)">email_config.json</text>

<!-- Arrow down left column -->
<line x1="120" y1="124" x2="120" y2="150" stroke="#7F77DD" stroke-width="1" marker-end="url(#arrow)"/>
<line x1="120" y1="226" x2="120" y2="250" stroke="#888780" stroke-width="1" marker-end="url(#arrow-gray)"/>

<!-- Center Column: Git & Deploy -->
<!-- Git Local -->
<rect x="260" y="140" width="160" height="56" rx="8" fill="#E6F1FB" stroke="#378ADD" stroke-width="0.5"/>
<text x="340" y="164" text-anchor="middle" font-size="13" font-weight="500" fill="#042C53">Git 本地仓库</text>
<text x="340" y="182" text-anchor="middle" font-size="11" fill="#185FA5">commit &amp; push → origin/main</text>

<!-- Arrow from fetch to git -->
<line x1="200" y1="188" x2="258" y2="168" stroke="#888780" stroke-width="1" marker-end="url(#arrow-gray)"/>

<!-- GitHub -->
<rect x="260" y="220" width="160" height="72" rx="8" fill="#E1F5EE" stroke="#1D9E75" stroke-width="0.5"/>
<text x="340" y="244" text-anchor="middle" font-size="13" font-weight="500" fill="#04342C">GitHub Pages</text>
<text x="340" y="262" text-anchor="middle" font-size="11" fill="#0F6E56">仓库：caiclhy0806/</text>
<text x="340" y="278" text-anchor="middle" font-size="11" fill="#0F6E56">fx-tracker（公有）</text>

<!-- Arrow git to github -->
<line x1="340" y1="198" x2="340" y2="218" stroke="#378ADD" stroke-width="1" marker-end="url(#arrow)"/>

<!-- DNS / Domain -->
<rect x="260" y="316" width="160" height="56" rx="8" fill="#FAEEDA" stroke="#BA7517" stroke-width="0.5"/>
<text x="340" y="340" text-anchor="middle" font-size="13" font-weight="500" fill="#633806">自定义域名</text>
<text x="340" y="358" text-anchor="middle" font-size="11" fill="#854F0B">ex.hplcx.com →</text>
<text x="340" y="374" text-anchor="middle" font-size="11" fill="#854F0B">caiclhy0806.github.io</text>

<!-- Arrow github to domain -->
<line x1="340" y1="294" x2="340" y2="314" stroke="#1D9E75" stroke-width="1" marker-end="url(#arrow)"/>

<!-- Right Column: User & Browser -->
<!-- User Browser -->
<rect x="480" y="140" width="160" height="108" rx="8" fill="#FCEBEB" stroke="#E24B4A" stroke-width="0.5"/>
<text x="560" y="164" text-anchor="middle" font-size="13" font-weight="500" fill="#501313">用户浏览器</text>
<line x1="496" y1="172" x2="624" y2="172" stroke="#E24B4A" stroke-width="0.5"/>
<text x="560" y="192" text-anchor="middle" font-size="11" fill="#791F1F">访问 ex.hplcx.com</text>
<text x="560" y="208" text-anchor="middle" font-size="11" fill="#791F1F">输入密钥 cl2026</text>
<text x="560" y="224" text-anchor="middle" font-size="11" fill="#791F1F">查看汇率 · 预警面板</text>
<text x="560" y="240" text-anchor="middle" font-size="11" fill="#791F1F">更新日志记录</text>

<!-- Arrow from domain to browser -->
<path d="M420 344 L458 344 L458 194 L478 194" stroke="#BA7517" stroke-width="1" fill="none" marker-end="url(#arrow)"/>

<!-- Alert System -->
<rect x="480" y="276" width="160" height="72" rx="8" fill="#FBEAF0" stroke="#D4537E" stroke-width="0.5"/>
<text x="560" y="300" text-anchor="middle" font-size="13" font-weight="500" fill="#4B1528">预警系统</text>
<line x1="496" y1="308" x2="624" y2="308" stroke="#D4537E" stroke-width="0.5"/>
<text x="560" y="326" text-anchor="middle" font-size="11" fill="#72243E">黄色预警：日±1% 周±3%</text>
<text x="560" y="342" text-anchor="middle" font-size="11" fill="#72243E">红色预警：日±2% 距极值&lt;1%</text>

<!-- Email -->
<rect x="480" y="368" width="160" height="56" rx="8" fill="#EAF3DE" stroke="#639922" stroke-width="0.5"/>
<text x="560" y="392" text-anchor="middle" font-size="13" font-weight="500" fill="#173404">邮件通知</text>
<line x1="496" y1="400" x2="624" y2="400" stroke="#639922" stroke-width="0.5"/>
<text x="560" y="418" text-anchor="middle" font-size="11" fill="#27500A">SMTP: smtp.126.com</text>
<text x="560" y="434" text-anchor="middle" font-size="11" fill="#27500A">clhy0806@126.com</text>

<!-- Arrow from fetch to alert -->
<line x1="200" y1="188" x2="478" y2="310" stroke="#7F77DD" stroke-width="1" stroke-dasharray="4,3" marker-end="url(#arrow)"/>

<!-- Version System note -->
<rect x="40" y="388" width="160" height="56" rx="8" fill="var(--color-background-tertiary)" stroke="var(--color-border-secondary)" stroke-width="0.5"/>
<text x="120" y="412" text-anchor="middle" font-size="12" font-weight="500" fill="var(--color-text-primary)">版本管理系统</text>
<text x="120" y="430" text-anchor="middle" font-size="11" fill="var(--color-text-secondary)">version.txt 自动递增</text>
<text x="120" y="446" text-anchor="middle" font-size="11" fill="var(--color-text-secondary)">update_log.json 记录历史</text>

<!-- Legend -->
<rect x="260" y="392" width="160" height="48" rx="8" fill="var(--color-background-primary)" stroke="var(--color-border-tertiary)" stroke-width="0.5"/>
<text x="340" y="412" text-anchor="middle" font-size="11" fill="var(--color-text-secondary)">实线 = 主数据流</text>
<line x1="276" y1="422" x2="308" y2="422" stroke="#888780" stroke-width="1"/>
<line x1="276" y1="438" x2="308" y2="438" stroke="#7F77DD" stroke-width="1" stroke-dasharray="4,3"/>
<text x="316" y="438" font-size="11" fill="var(--color-text-secondary)">虚线 = 辅助通知</text>

</svg>